# This file uses centimeters as units for non-parametric coordinates.

mtllib Hammer_Sub_Ready.mtl
g default
v -1.040293 0.167792 0.826272
v 1.048220 0.589260 0.830027
v -1.138146 16.048922 0.916958
v 1.138146 16.048922 0.916958
v -1.138146 16.048922 -0.916958
v 1.138146 16.048922 -0.916958
v -1.040293 0.167792 -0.826272
v 1.048220 0.589260 -0.830027
v -0.671988 16.532808 0.541394
v 0.671988 16.532808 0.541394
v 0.671988 16.532808 -0.541394
v -0.671988 16.532808 -0.541394
v -0.671988 29.255547 0.541394
v 0.671988 29.255547 0.541394
v 0.671988 29.255547 -0.541394
v -0.671988 29.255547 -0.541394
v -0.003417 0.030877 1.323497
v -0.003417 0.030877 -1.323497
v -0.003417 16.048922 -1.323497
v -0.002017 16.532806 -0.781424
v -0.002017 29.255545 -0.781424
v -0.002017 29.255545 0.781424
v -0.002017 16.532806 0.781424
v -0.003417 16.048922 1.323497
v -1.642750 16.048922 0.000024
v -0.969919 16.532808 0.000014
v -0.969919 29.255547 0.000014
v 0.969919 29.255547 0.000014
v 0.969919 16.532808 0.000014
v 1.642750 16.048922 0.000024
v 1.552824 1.062435 0.000024
v -0.003417 0.030877 0.000024
v -1.416139 0.384128 0.000024
v -0.671988 28.900572 0.541394
v -0.002017 28.900568 0.781424
v 0.671988 28.900572 0.541394
v 0.969919 28.900572 0.000014
v 0.671988 28.900572 -0.541394
v -0.002017 28.900568 -0.781424
v -0.671988 28.900572 -0.541394
v -0.969919 28.900572 0.000014
v -1.021657 29.812201 1.182242
v 1.021657 29.812201 1.182242
v -1.021657 32.064957 1.182242
v 1.021657 32.064957 1.182242
v -1.021657 32.064957 -1.182242
v 1.021657 32.064957 -1.182242
v -1.021657 29.812201 -1.182242
v 1.021657 29.812201 -1.182242
v 2.766993 30.111612 -0.826967
v 2.766993 30.111612 0.826967
v 2.766993 31.765549 -0.826967
v 2.766993 31.765549 0.826967
v -2.766993 30.111612 -0.826967
v -2.766993 30.111612 0.826967
v -2.766993 31.765549 0.826967
v -2.766993 31.765549 -0.826967
v 3.584493 29.539984 -1.398594
v 3.584493 29.539984 1.398594
v 3.584493 32.337177 -1.398594
v 3.584493 32.337177 1.398594
v -3.584493 29.539984 -1.398594
v -3.584493 29.539984 1.398594
v -3.584493 32.337177 1.398594
v -3.584493 32.337177 -1.398594
v 5.451370 29.539984 -1.398594
v 5.451370 29.539984 1.398594
v 5.451370 32.337177 -1.398594
v 5.451370 32.337177 1.398594
v -5.451370 29.539984 -1.398594
v -5.451370 29.539984 1.398594
v -5.451370 32.337177 1.398594
v -5.451370 32.337177 -1.398594
v -1.021657 32.307034 0.005379
v 1.021657 32.307034 0.005379
v 2.766993 31.943277 0.003763
v 3.584493 32.637756 0.006363
v 5.451370 32.637756 0.006363
v 5.451370 29.239403 0.006363
v 3.584493 29.239403 0.006363
v 2.766993 29.933884 0.003763
v 1.021657 29.570124 0.005379
v -1.021657 29.570124 0.005379
v -2.766993 29.933884 0.003763
v -3.584493 29.239403 0.006363
v -5.451370 29.239403 0.006363
v -5.451370 32.637756 0.006363
v -3.584493 32.637756 0.006363
v -2.766993 31.943277 0.003763
v -1.021657 30.942699 1.419277
v 1.021657 30.942699 1.419277
v 2.766993 30.941607 0.992770
v 3.584493 30.943697 1.679007
v 5.451370 30.943697 1.679007
v 5.451370 30.943697 0.006363
v 5.451370 30.943697 -1.679007
v 3.584493 30.943697 -1.679007
v 2.766993 30.941607 -0.992770
v 1.021657 30.942699 -1.419277
v -1.021657 30.942699 -1.419277
v -2.766993 30.941607 -0.992770
v -3.584493 30.943697 -1.679007
v -5.451370 30.943697 -1.679007
v -5.451370 30.943697 0.006363
v -5.451370 30.943697 1.679007
v -3.584493 30.943697 1.679007
v -2.766993 30.941607 0.992770
v -0.016434 29.669546 1.331970
v -0.016434 29.669546 -1.331970
v -0.016434 30.943222 -1.599025
v -0.016434 32.207611 -1.331970
v -0.016434 32.480347 0.006060
v -0.016434 32.207611 1.331970
v -0.016434 30.943222 1.599025
vt 0.206448 0.491709
vt 0.206448 0.026379
vt 0.235203 0.042600
vt 0.237662 0.491709
vt 0.656162 0.026379
vt 0.656162 0.491709
vt 0.624948 0.491709
vt 0.627407 0.042600
vt 0.249001 0.056346
vt 0.251460 0.491709
vt 0.684513 0.030357
vt 0.167820 0.036641
vt 0.700987 0.491709
vt 0.687189 0.491709
vt 0.206486 0.505766
vt 0.224916 0.505766
vt 0.629548 0.505766
vt 0.637694 0.505766
vt 0.656124 0.505766
vt 0.180021 0.505766
vt 0.674443 0.505766
vt 0.206486 0.875366
vt 0.206486 0.865054
vt 0.224916 0.865054
vt 0.224916 0.875366
vt 0.629548 0.875366
vt 0.629548 0.865054
vt 0.637694 0.865054
vt 0.637694 0.875366
vt 0.656124 0.865054
vt 0.656124 0.875366
vt 0.674443 0.865054
vt 0.180021 0.865054
vt 0.180021 0.875366
vt 0.674443 0.875366
vt 0.188167 0.865054
vt 0.188167 0.875366
vt 0.175421 0.491709
vt 0.188167 0.505766
vt 0.178096 0.030357
vt 0.206092 0.961125
vt 0.206092 0.924394
vt 0.234477 0.924379
vt 0.234477 0.956981
vt 0.656518 0.961125
vt 0.206092 0.969048
vt 0.628133 0.964013
vt 0.628133 0.956981
vt 0.656518 0.924394
vt 0.628133 0.924379
vt 0.412402 0.962137
vt 0.402844 0.914857
vt 0.507010 0.924408
vt 0.507010 0.964889
vt 0.450447 0.905233
vt 0.450389 0.945726
vt 0.805127 0.924408
vt 0.852730 0.914784
vt 0.282200 0.895072
vt 0.234477 0.884505
vt 0.628133 0.891537
vt 0.580410 0.900235
vt 0.580410 0.924347
vt 0.580410 0.948283
vt 0.282200 0.953446
vt 0.282200 0.924347
vt 0.282200 0.948283
vt 0.684004 0.891537
vt 0.684004 0.884505
vt 0.130883 0.895072
vt 0.731727 0.900235
vt 0.130883 0.924347
vt 0.178606 0.924379
vt 0.178606 0.956981
vt 0.130883 0.948283
vt 0.130883 0.953446
vt 0.684004 0.964013
vt 0.684004 0.956981
vt 0.731727 0.948283
vt 0.684004 0.924379
vt 0.731727 0.924347
vt 0.304553 0.874897
vt 0.558056 0.883629
vt 0.558056 0.924408
vt 0.558056 0.964889
vt 0.304553 0.973621
vt 0.304553 0.924408
vt 0.304553 0.964889
vt 0.108530 0.874897
vt 0.754080 0.883629
vt 0.108530 0.924408
vt 0.108530 0.964889
vt 0.108530 0.973621
vt 0.754080 0.964889
vt 0.754080 0.924408
vt 0.862289 0.962065
vt 0.507010 0.883629
vt 0.820910 0.961698
vt 0.355600 0.964889
vt 0.355600 0.924408
vt 0.371383 0.961698
vt 0.057483 0.924408
vt 0.899974 0.905233
vt 0.304553 0.883629
vt 0.355600 0.883629
vt 0.282200 0.900235
vt 0.234477 0.891537
vt 0.178606 0.891537
vt 0.130883 0.900235
vt 0.108530 0.883629
vt 0.899916 0.945726
vt 0.206092 0.887393
vt 0.656518 0.887393
vt 0.682589 0.875366
vt 0.178606 0.884505
vt 0.233062 0.875366
vt 0.628133 0.884505
vt 0.656518 0.969048
vt 0.234477 0.964013
vt 0.057483 0.973621
vt 0.393227 0.867290
vt 0.355600 0.874897
vt 0.731727 0.953446
vt 0.178606 0.964013
vt 0.754080 0.973621
vt 0.805127 0.874897
vt 0.754080 0.874897
vt 0.731727 0.895072
vt 0.580410 0.895072
vt 0.558056 0.874897
vt 0.507010 0.973621
vt 0.558056 0.973621
vt 0.580410 0.953446
vt 0.682589 0.865054
vt 0.233062 0.865054
vt 0.233062 0.505766
vt 0.694790 0.036641
vt 0.161623 0.491709
vt 0.257098 0.028892
vt 0.613609 0.056346
vt 0.611150 0.491709
vt 0.682589 0.505766
vt 0.434606 0.867657
vt 0.057483 0.964889
vt 0.805127 0.883629
vt 0.843114 0.867218
vt 0.884133 0.867657
vt 0.805127 0.973621
vt 0.355600 0.973621
vt 0.805127 0.964889
vt 0.057483 0.874897
vt 0.507010 0.874897
vt 0.057483 0.883629
vt 0.283287 0.036617
vt 0.268051 0.052289
vt 0.278844 0.015423
vt 0.264449 0.003971
vt 0.230911 0.021168
vt 0.246145 0.005779
vt 0.629548 0.875366
vt 0.233062 0.875366
vt 0.637694 0.875366
vt 0.180021 0.875366
vt 0.682589 0.875366
vt 0.674443 0.875366
vt 0.206486 0.875366
vt 0.224916 0.875366
vt 0.656124 0.875366
vt 0.188167 0.875366
vt 0.251460 0.491709
vt 0.611150 0.491709
vt 0.624948 0.491709
vt 0.700987 0.491709
vt 0.161623 0.491709
vt 0.687189 0.491709
vt 0.206448 0.491709
vt 0.237662 0.491709
vt 0.656162 0.491709
vt 0.175421 0.491709
vt 0.629548 0.505766
vt 0.233062 0.505766
vt 0.637694 0.505766
vt 0.180021 0.505766
vt 0.682589 0.505766
vt 0.674443 0.505766
vt 0.206486 0.505766
vt 0.224916 0.505766
vt 0.656124 0.505766
vt 0.188167 0.505766
vn -0.003349 -0.004029 0.999986
vn -0.056219 -0.004034 0.998410
vn 0.380432 -0.003641 0.924802
vn 0.380432 -0.003641 0.924802
vn -0.056219 -0.004034 -0.998410
vn -0.003349 -0.004029 -0.999986
vn 0.380432 -0.003641 -0.924802
vn 0.380432 -0.003641 -0.924802
vn 0.510983 -0.859591 0.000001
vn 0.210048 -0.977691 0.000000
vn 0.217496 -0.973360 0.072567
vn 0.509766 -0.857544 0.068973
vn 0.999972 -0.007551 -0.000000
vn 0.999972 -0.007551 0.000002
vn 0.866654 -0.006544 -0.498868
vn 0.866654 -0.006544 -0.498868
vn -0.893089 -0.010479 -0.449758
vn -0.999931 -0.011732 0.000001
vn -0.999931 -0.011732 -0.000000
vn -0.893089 -0.010479 -0.449758
vn 0.000155 0.746012 0.665933
vn -0.000214 0.746012 0.665932
vn 0.230866 0.725562 0.648275
vn 0.230866 0.725562 0.648275
vn 0.583866 0.811850 -0.000000
vn 0.583866 0.811850 0.000001
vn 0.555882 0.772932 -0.305895
vn 0.555882 0.772932 -0.305895
vn 0.230866 0.725562 -0.648275
vn -0.000214 0.746012 -0.665932
vn 0.000155 0.746012 -0.665933
vn 0.230866 0.725562 -0.648275
vn -0.555882 0.772932 -0.305895
vn -0.583866 0.811850 0.000001
vn -0.583866 0.811850 -0.000000
vn -0.555882 0.772932 -0.305895
vn 0.000000 -0.000000 1.000000
vn -0.000000 -0.000000 1.000000
vn 0.335486 -0.000000 0.942045
vn 0.335485 -0.000000 0.942045
vn 1.000000 0.000000 0.000000
vn 1.000000 0.000000 -0.000000
vn 0.876109 0.000000 -0.482113
vn 0.876109 0.000000 -0.482112
vn 0.335486 -0.000000 -0.942045
vn -0.000000 -0.000000 -1.000000
vn -0.000000 -0.000000 -1.000000
vn 0.335485 -0.000000 -0.942045
vn -0.876109 0.000000 -0.482113
vn -1.000000 0.000000 -0.000000
vn -1.000000 0.000000 0.000000
vn -0.876109 0.000000 -0.482112
vn -0.182727 -0.980894 0.066762
vn -0.183135 -0.983088 0.000001
vn -0.384429 -0.003804 -0.923147
vn -0.384429 -0.003804 -0.923147
vn -0.231957 0.725963 -0.647436
vn -0.231957 0.725963 -0.647436
vn -0.337277 -0.000000 -0.941406
vn -0.337277 -0.000000 -0.941406
vn -0.337277 -0.000000 0.941406
vn -0.337277 -0.000000 0.941406
vn -0.231957 0.725963 0.647436
vn -0.231957 0.725963 0.647436
vn -0.384429 -0.003804 0.923147
vn -0.384429 -0.003804 0.923147
vn -0.555874 0.772933 0.305907
vn -0.555874 0.772933 0.305907
vn -0.876099 0.000000 0.482132
vn -0.876099 0.000000 0.482132
vn 0.876099 0.000000 0.482132
vn 0.876099 0.000000 0.482132
vn 0.555874 0.772933 0.305907
vn 0.555874 0.772933 0.305907
vn 0.866642 -0.006544 0.498888
vn 0.866642 -0.006544 0.498888
vn 0.217496 -0.973360 -0.072571
vn 0.509766 -0.857544 -0.068976
vn -0.182726 -0.980894 -0.066765
vn -0.893079 -0.010479 0.449778
vn -0.893079 -0.010479 0.449778
vn -0.337277 0.000000 0.941406
vn 0.000000 0.000000 1.000000
vn 0.335486 0.000000 0.942045
vn 0.876099 0.000000 0.482132
vn 1.000000 0.000000 -0.000000
vn 0.876109 0.000000 -0.482113
vn 0.335486 0.000000 -0.942045
vn 0.000000 0.000000 -1.000000
vn -0.337277 0.000000 -0.941406
vn -0.876109 0.000000 -0.482113
vn -1.000000 0.000000 -0.000000
vn -0.876099 0.000000 0.482132
vn 0.000190 0.206653 0.978414
vn 0.000064 0.000050 1.000000
vn 0.170614 -0.000047 0.985338
vn 0.167134 0.203746 0.964652
vn 0.000201 0.979852 -0.199727
vn 0.000058 1.000000 0.000066
vn 0.164674 0.986348 -0.000062
vn 0.161318 0.967018 -0.197111
vn 0.000064 0.000050 -1.000000
vn 0.000190 0.206653 -0.978414
vn 0.167134 0.203746 -0.964652
vn 0.170614 -0.000047 -0.985338
vn 1.000000 -0.000000 0.000000
vn 1.000000 -0.000000 0.000000
vn 1.000000 -0.000000 0.000000
vn 1.000000 -0.000000 0.000000
vn -1.000000 0.000000 0.000000
vn -1.000000 -0.000000 0.000000
vn -1.000000 -0.000000 0.000000
vn -1.000000 -0.000000 0.000000
vn 0.206688 -0.978407 -0.000089
vn 0.206688 -0.978407 0.000095
vn 0.202360 -0.958791 -0.199424
vn 0.202360 -0.958791 -0.199424
vn 0.234891 -0.000054 -0.972022
vn 0.234891 0.000056 -0.972022
vn 0.230394 0.197238 -0.952899
vn 0.230394 0.197238 -0.952899
vn 0.202358 0.958792 -0.199424
vn 0.206686 0.978407 0.000095
vn 0.206686 0.978407 -0.000089
vn 0.202358 0.958792 -0.199424
vn 0.230394 0.197238 0.952899
vn 0.234891 0.000056 0.972022
vn 0.234891 -0.000054 0.972022
vn 0.230394 0.197238 0.952899
vn -0.202360 -0.958791 -0.199424
vn -0.206688 -0.978407 0.000095
vn -0.206688 -0.978407 -0.000089
vn -0.202360 -0.958791 -0.199424
vn -0.234891 -0.000054 0.972022
vn -0.234891 0.000056 0.972022
vn -0.230394 0.197238 0.952899
vn -0.230394 0.197238 0.952899
vn -0.206686 0.978407 -0.000089
vn -0.206686 0.978407 0.000095
vn -0.202358 0.958792 -0.199424
vn -0.202358 0.958792 -0.199424
vn -0.230394 0.197238 -0.952899
vn -0.234891 0.000056 -0.972022
vn -0.234891 -0.000054 -0.972022
vn -0.230394 0.197238 -0.952899
vn -0.647435 -0.762121 0.000205
vn -0.647434 -0.762121 -0.000172
vn -0.638693 -0.752434 -0.160978
vn -0.638693 -0.752434 -0.160978
vn -0.642937 0.000158 -0.765919
vn -0.642937 -0.000135 -0.765919
vn -0.635666 0.152291 -0.756793
vn -0.635666 0.152291 -0.756793
vn -0.638693 0.752435 -0.160978
vn -0.647434 0.762122 -0.000172
vn -0.647435 0.762121 0.000205
vn -0.638693 0.752435 -0.160978
vn -0.635666 0.152291 0.756793
vn -0.642937 -0.000135 0.765919
vn -0.642937 0.000158 0.765919
vn -0.635666 0.152291 0.756793
vn 0.638693 -0.752434 -0.160978
vn 0.647434 -0.762121 -0.000172
vn 0.647435 -0.762121 0.000205
vn 0.638693 -0.752434 -0.160978
vn 0.642937 0.000158 0.765919
vn 0.642937 -0.000135 0.765919
vn 0.635666 0.152291 0.756793
vn 0.635666 0.152291 0.756793
vn 0.647434 0.762121 0.000205
vn 0.647434 0.762122 -0.000172
vn 0.638693 0.752435 -0.160978
vn 0.638693 0.752435 -0.160978
vn 0.635666 0.152291 -0.756793
vn 0.642937 -0.000135 -0.765919
vn 0.642937 0.000158 -0.765919
vn 0.635666 0.152291 -0.756793
vn 0.000000 -1.000000 0.000000
vn 0.000000 -1.000000 0.000000
vn 0.000000 -0.977871 -0.209209
vn 0.000000 -0.977871 -0.209209
vn 0.000000 0.000000 -1.000000
vn 0.000000 -0.000000 -1.000000
vn 0.000000 0.197277 -0.980348
vn 0.000000 0.197277 -0.980348
vn 0.000000 0.977871 -0.209208
vn 0.000000 1.000000 -0.000000
vn 0.000000 1.000000 -0.000000
vn 0.000000 0.977871 -0.209208
vn 0.000000 0.197277 0.980348
vn 0.000000 0.000000 1.000000
vn 0.000000 0.000000 1.000000
vn 0.000000 0.197277 0.980348
vn 0.000000 -0.977871 -0.209209
vn 0.000000 -1.000000 0.000000
vn 0.000000 -1.000000 0.000000
vn 0.000000 -0.977871 -0.209209
vn 0.000000 0.000000 1.000000
vn 0.000000 0.000000 1.000000
vn 0.000000 0.197277 0.980348
vn 0.000000 0.197277 0.980348
vn 0.000000 1.000000 -0.000000
vn 0.000000 1.000000 -0.000000
vn 0.000000 0.977871 -0.209208
vn 0.000000 0.977871 -0.209208
vn 0.000000 0.197277 -0.980348
vn 0.000000 -0.000000 -1.000000
vn 0.000000 0.000000 -1.000000
vn 0.000000 0.197277 -0.980348
vn 0.000201 0.979493 0.201479
vn 0.161513 0.966633 0.198834
vn 0.202640 0.958370 0.201158
vn 0.202640 0.958370 0.201158
vn -0.639150 0.751761 0.162304
vn -0.639150 0.751761 0.162304
vn 0.000000 0.977478 0.211036
vn 0.000000 0.977478 0.211036
vn 1.000000 0.000000 0.000000
vn 1.000000 -0.000000 0.000000
vn 0.000000 -0.977478 0.211037
vn 0.000000 -0.977478 0.211037
vn -0.639150 -0.751761 0.162304
vn -0.639150 -0.751761 0.162304
vn 0.202642 -0.958369 0.201158
vn 0.202642 -0.958369 0.201158
vn -0.202642 -0.958369 0.201158
vn -0.202642 -0.958369 0.201158
vn 0.639150 -0.751761 0.162304
vn 0.639150 -0.751761 0.162304
vn 0.000000 -0.977478 0.211037
vn 0.000000 -0.977478 0.211037
vn -1.000000 -0.000000 0.000000
vn -1.000000 -0.000000 0.000000
vn 0.000000 0.977478 0.211036
vn 0.000000 0.977478 0.211036
vn 0.639150 0.751762 0.162304
vn 0.639150 0.751762 0.162304
vn -0.202640 0.958370 0.201158
vn -0.202640 0.958370 0.201158
vn 0.000191 -0.205210 0.978718
vn 0.166987 -0.202329 0.964976
vn 0.230225 -0.195866 0.953222
vn 0.230225 -0.195866 0.953222
vn -0.635310 -0.151281 0.757295
vn -0.635310 -0.151281 0.757295
vn 0.000000 -0.195895 0.980625
vn 0.000000 -0.195895 0.980625
vn 1.000000 0.000000 0.000000
vn 1.000000 0.000000 0.000000
vn 1.000000 0.000000 0.000000
vn 0.000000 -0.195895 -0.980625
vn 0.000000 -0.195895 -0.980625
vn -0.635310 -0.151281 -0.757295
vn -0.635310 -0.151281 -0.757295
vn 0.230225 -0.195866 -0.953222
vn 0.230225 -0.195866 -0.953222
vn 0.000191 -0.205210 -0.978718
vn 0.166987 -0.202329 -0.964976
vn -0.230225 -0.195866 -0.953222
vn -0.230225 -0.195866 -0.953222
vn 0.635310 -0.151281 -0.757294
vn 0.635310 -0.151281 -0.757294
vn 0.000000 -0.195895 -0.980625
vn 0.000000 -0.195895 -0.980625
vn -1.000000 0.000000 0.000000
vn -1.000000 0.000000 0.000000
vn -1.000000 0.000000 0.000000
vn 0.000000 -0.195895 0.980625
vn 0.000000 -0.195895 0.980625
vn 0.635310 -0.151281 0.757295
vn 0.635310 -0.151281 0.757295
vn -0.230225 -0.195866 0.953222
vn -0.230225 -0.195866 0.953222
vn -0.176022 -0.000048 -0.984386
vn -0.172287 -0.202142 -0.964083
vn -0.172439 0.203557 -0.963758
vn -0.169906 0.985460 -0.000064
vn -0.166449 0.966183 -0.196941
vn -0.166650 0.965796 0.198661
vn -0.176022 -0.000048 0.984386
vn -0.172439 0.203557 0.963758
vn -0.172287 -0.202142 0.964083
vn 0.198667 -0.786450 0.584832
vn 0.198666 -0.786450 0.584832
vn 0.198667 -0.786450 0.584832
vn 0.198667 -0.786450 0.584832
vn 0.815427 -0.536648 0.216996
vn 0.815427 -0.536648 0.216996
vn 0.815427 -0.536648 0.216996
vn 0.815427 -0.536648 0.216996
vn 0.817551 -0.533959 -0.215632
vn 0.817551 -0.533959 -0.215632
vn 0.817551 -0.533959 -0.215632
vn 0.817551 -0.533959 -0.215632
vn 0.198667 -0.786451 -0.584830
vn 0.198667 -0.786451 -0.584830
vn 0.198667 -0.786451 -0.584830
vn 0.198667 -0.786451 -0.584830
vn -0.202260 -0.788603 -0.580686
vn -0.202260 -0.788603 -0.580686
vn -0.202260 -0.788603 -0.580686
vn -0.202260 -0.788603 -0.580687
vn -0.817552 -0.533959 -0.215632
vn -0.817552 -0.533959 -0.215632
vn -0.817551 -0.533959 -0.215632
vn -0.817552 -0.533959 -0.215632
vn -0.815427 -0.536648 0.216996
vn -0.815427 -0.536648 0.216996
vn -0.815427 -0.536648 0.216996
vn -0.815427 -0.536648 0.216996
vn -0.202260 -0.788603 0.580686
vn -0.202260 -0.788603 0.580686
vn -0.202260 -0.788603 0.580686
vn -0.202260 -0.788603 0.580686
s 1
g pCube3
usemtl blinn3SG
f 24/1/1 17/2/2 2/3/3 4/177/4
s 2
f 18/5/5 19/178/6 6/172/7 8/8/8
s 3
f 31/9/9 32/139/10 18/154/11 8/155/12
s 4
f 30/171/13 31/140/14 8/8/15 6/172/16
s 5
f 7/11/17 33/137/18 25/13/19 5/14/20
s 6
f 23/186/21 24/176/22 4/4/23 10/187/24
s 7
f 29/180/25 30/141/26 6/7/27 11/182/28
s 8
f 6/7/29 19/6/30 20/188/31 11/182/32
s 9
f 5/175/33 25/173/34 26/142/35 12/21/36
s 10
usemtl lambert2SG
f 22/166/37 35/23/38 36/24/39 14/167/40
s 11
f 28/160/41 37/27/42 38/28/43 15/162/44
s 12
f 38/28/45 39/30/46 21/168/47 15/162/48
s 13
f 40/32/49 41/134/50 27/114/51 16/165/52
s 3
usemtl blinn3SG
f 7/156/53 18/154/11 32/139/10 33/157/54
s 2
f 5/14/55 19/178/6 18/5/5 7/11/56
s 8
f 20/188/31 19/6/30 5/175/57 12/21/58
s 12
usemtl lambert2SG
f 21/168/47 39/30/46 40/32/59 16/165/60
s 10
f 34/36/61 35/23/38 22/166/37 13/169/62
s 6
usemtl blinn3SG
f 3/38/63 24/176/22 23/186/21 9/189/64
s 1
f 1/40/65 17/2/2 24/1/1 3/179/66
s 9
f 26/183/35 25/138/34 3/38/67 9/189/68
s 13
usemtl lambert2SG
f 27/163/51 41/33/50 34/36/69 13/169/70
s 11
f 36/24/71 37/135/42 28/116/41 14/167/72
s 7
usemtl blinn3SG
f 4/4/73 30/170/26 29/136/25 10/187/74
s 4
f 2/3/75 31/9/14 30/10/13 4/177/76
s 3
f 17/158/77 32/139/10 31/9/9 2/3/78
f 33/157/54 32/139/10 17/158/77 1/159/79
s 5
f 25/174/19 33/12/18 1/40/80 3/179/81
s 10
usemtl lambert2SG
f 9/39/82 23/15/83 35/23/38 34/36/61
f 36/24/39 35/23/38 23/15/83 10/16/84
s 11
f 10/16/85 29/181/86 37/135/42 36/24/71
f 38/28/43 37/27/42 29/17/86 11/18/87
s 12
f 11/18/88 20/19/89 39/30/46 38/28/45
f 40/32/59 39/30/46 20/19/89 12/185/90
s 13
f 12/185/91 26/184/92 41/134/50 40/32/49
f 34/36/69 41/33/50 26/20/92 9/39/93
s 14
usemtl blinn1SG
f 113/41/94 114/42/95 91/43/96 45/44/97
s 15
f 111/45/98 112/118/99 75/47/100 47/48/101
s 16
f 110/49/102 111/45/103 47/48/104 99/50/105
s 17
f 78/51/106 95/52/107 96/55/108 68/56/109
s 18
f 103/57/110 104/58/111 87/96/112 73/98/113
s 19
f 81/129/114 82/117/115 49/61/116 50/62/117
s 20
f 98/63/118 99/50/119 47/48/120 52/64/121
s 21
f 47/48/122 75/47/123 76/133/124 52/64/125
s 22
f 45/44/126 91/43/127 92/66/128 53/67/129
s 23
f 48/68/130 83/69/131 84/128/132 54/71/133
s 24
f 107/72/134 90/73/135 44/74/136 56/75/137
s 25
f 89/123/138 74/77/139 46/78/140 57/79/141
s 26
f 46/78/142 100/80/143 101/81/144 57/79/145
s 27
f 80/130/146 81/129/147 50/62/148 58/83/149
s 28
f 97/84/150 98/63/151 52/64/152 60/85/153
s 29
f 52/64/154 76/133/155 77/132/156 60/85/157
s 30
f 53/67/158 92/66/159 93/87/160 61/88/161
s 31
f 54/71/162 84/128/163 85/127/164 62/90/165
s 32
f 106/91/166 107/72/167 56/75/168 64/92/169
s 33
f 88/125/170 89/123/171 57/79/172 65/94/173
s 34
f 57/79/174 101/81/175 102/95/176 65/94/177
s 35
f 79/152/178 80/130/179 58/83/180 66/97/181
s 36
f 96/53/182 97/84/183 60/85/184 68/54/185
s 37
f 60/85/186 77/132/187 78/131/188 68/54/189
s 38
f 61/88/190 93/87/191 94/100/192 69/99/193
s 39
f 62/90/194 85/127/195 86/126/196 70/145/197
s 40
f 105/102/198 106/91/199 64/92/200 72/144/201
s 41
f 87/148/202 88/125/203 65/94/204 73/150/205
s 42
f 65/94/206 102/95/207 103/57/208 73/150/209
s 15
f 112/46/99 113/41/210 45/44/211 75/119/100
s 21
f 76/65/124 75/119/123 45/44/212 53/67/213
s 29
f 77/86/156 76/65/155 53/67/214 61/88/215
s 37
f 78/149/188 77/86/187 61/88/216 69/99/217
s 17
f 94/100/218 95/52/107 78/51/106 69/101/219
s 35
f 59/104/220 80/82/179 79/122/178 67/105/221
s 27
f 51/106/222 81/59/147 80/82/146 59/104/223
s 19
f 43/107/224 82/60/115 81/59/114 51/106/225
s 23
f 84/70/132 83/115/131 42/108/226 55/109/227
s 31
f 85/89/164 84/70/163 55/109/228 63/110/229
s 39
f 86/151/196 85/89/195 63/110/230 71/153/231
s 18
f 87/96/112 104/58/111 105/103/232 72/111/233
s 41
f 64/92/234 88/93/203 87/120/202 72/144/235
s 33
f 56/75/236 89/76/171 88/93/170 64/92/237
s 25
f 44/74/238 74/124/139 89/76/138 56/75/239
s 14
f 114/42/95 108/112/240 43/107/241 91/43/96
s 22
f 92/66/128 91/43/127 43/107/242 51/106/243
s 30
f 93/87/160 92/66/159 51/106/244 59/104/245
s 38
f 94/100/192 93/87/191 59/104/246 67/105/247
s 17
f 67/105/248 79/121/249 95/52/107 94/100/218
f 96/55/108 95/52/107 79/121/249 66/143/250
s 36
f 58/83/251 97/84/183 96/53/182 66/97/252
s 28
f 50/62/253 98/63/151 97/84/150 58/83/254
s 20
f 49/61/255 99/50/119 98/63/118 50/62/256
s 16
f 109/113/257 110/49/102 99/50/105 49/61/258
s 26
f 101/81/144 100/80/143 48/68/259 54/71/260
s 34
f 102/95/176 101/81/175 54/71/261 62/90/262
s 42
f 103/57/208 102/95/207 62/90/263 70/145/264
s 18
f 70/145/265 86/146/266 104/58/111 103/57/110
f 105/103/232 104/58/111 86/146/266 71/147/267
s 40
f 63/110/268 106/91/199 105/102/198 71/153/269
s 32
f 55/109/270 107/72/167 106/91/166 63/110/271
s 24
f 42/108/272 90/73/135 107/72/134 55/109/273
s 16
f 100/80/274 110/49/102 109/113/257 48/68/275
f 46/78/276 111/45/103 110/49/102 100/80/274
s 15
f 74/77/277 112/118/99 111/45/98 46/78/278
f 44/74/279 113/41/210 112/46/99 74/124/277
s 14
f 90/73/280 114/42/95 113/41/94 44/74/281
f 42/108/282 108/112/240 114/42/95 90/73/280
s off
f 22/22/283 14/25/284 43/107/285 108/112/286
f 14/25/287 28/161/288 82/60/289 43/107/290
f 28/26/291 15/29/292 49/61/293 82/117/294
f 15/29/295 21/31/296 109/113/297 49/61/298
f 21/31/299 16/35/300 48/68/301 109/113/302
f 16/35/303 27/164/304 83/69/305 48/68/306
f 27/34/307 13/37/308 42/108/309 83/115/310
f 13/37/311 22/22/312 108/112/313 42/108/314
